# Blender v2.80 (sub 75) OBJ File: 'MultiNodeCube.blend'
# www.blender.org
mtllib MultiNodeCube_optmzd.mtl
o Cube_optmzd_Cube.002
v 0.500000 -0.500000 -0.500000
v 0.500000 0.500000 -0.500000
v 0.500000 -0.500000 0.500000
v 0.500000 0.500000 0.500000
v -0.500000 -0.500000 -0.500000
v -0.500000 0.500000 -0.500000
v -0.500000 -0.500000 0.500000
v -0.500000 0.500000 0.500000
v 0.500000 0.500000 0.000000
v -0.500000 0.500000 0.000000
v -0.500000 0.500000 -0.250000
v 0.500000 0.500000 -0.250000
v 0.500000 0.500000 0.250000
v -0.500000 0.500000 0.250000
v 0.000000 0.500000 0.500000
v 0.000000 0.500000 -0.500000
v 0.000000 0.500000 0.000000
v 0.000000 0.500000 -0.250000
v 0.000000 0.500000 0.250000
v -0.250000 0.500000 0.500000
v -0.250000 0.500000 0.000000
v -0.250000 0.500000 -0.250000
v -0.250000 0.500000 0.250000
v -0.250000 0.500000 -0.500000
v 0.250000 0.500000 -0.500000
v 0.250000 0.500000 0.500000
v 0.250000 0.500000 0.000000
v 0.250000 0.500000 -0.250000
v 0.250000 0.500000 0.250000
v -0.375000 0.500000 0.375000
v 0.375000 0.500000 -0.375000
v 0.375000 0.500000 0.125000
v 0.375000 0.500000 -0.125000
v 0.375000 0.500000 0.375000
v -0.125000 0.500000 0.375000
v -0.125000 0.500000 -0.125000
v -0.125000 0.500000 0.125000
v -0.125000 0.500000 -0.375000
v -0.375000 0.500000 -0.375000
v -0.375000 0.500000 0.125000
v -0.375000 0.500000 -0.125000
v 0.125000 0.500000 0.375000
v 0.125000 0.500000 -0.125000
v 0.125000 0.500000 0.125000
v 0.125000 0.500000 -0.375000
v 0.500000 0.475000 -0.500000
v 0.500000 0.475000 0.500000
v -0.500000 0.475000 0.500000
v -0.500000 0.475000 -0.500000
vt 0.125000 0.500000
vt 0.375000 0.750000
vt 0.125000 0.750000
vt 0.000000 0.000000
vt 0.625000 0.562500
vt 0.000000 0.000000
vt 0.000000 0.000000
vt 0.625000 0.437500
vt 0.625000 0.500000
vt 0.625000 0.250000
vt 0.625000 0.187500
vt 0.000000 0.000000
vt 0.000000 0.000000
vt 0.000000 0.000000
vt 0.625000 0.125000
vt 0.000000 0.000000
vt 0.000000 0.000000
vt 0.625000 0.062500
vt 0.000000 0.000000
vt 0.000000 0.000000
vt 0.625000 0.000000
vt 0.625000 1.000000
vt 0.625000 0.937500
vt 0.000000 0.000000
vt 0.625000 0.875000
vt 0.000000 0.000000
vt 0.000000 0.000000
vt 0.625000 0.812500
vt 0.000000 0.000000
vt 0.000000 0.000000
vt 0.000000 0.000000
vt 0.000000 0.000000
vt 0.000000 0.000000
vt 0.000000 0.000000
vt 0.000000 0.000000
vt 0.000000 0.000000
vt 0.000000 0.000000
vt 0.625000 0.375000
vt 0.625000 0.312500
vt 0.000000 0.000000
vt 0.625000 0.625000
vt 0.000000 0.000000
vt 0.625000 0.687500
vt 0.000000 0.000000
vt 0.625000 0.750000
vt 0.618750 0.500000
vt 0.618750 0.750000
vt 0.618750 1.000000
vt 0.000000 0.000000
vt 0.618750 0.250000
vt 0.375000 0.000000
vt 0.618750 0.000000
vt 0.375000 0.500000
vt 0.375000 0.250000
vt 0.375000 1.000000
vn 0.0000 -1.0000 0.0000
vn 0.0000 1.0000 0.0000
vn -1.0000 0.0000 0.0000
vn 0.0000 0.0000 -1.0000
vn 0.0000 0.0000 1.0000
vn 1.0000 0.0000 0.0000
usemtl None
s off
f 3/1/1 5/2/1 1/3/1
f 40/4/2 14/5/2 23/6/2
f 23/6/2 30/7/2 20/8/2
f 23/6/2 14/5/2 30/7/2
f 8/9/2 20/8/2 30/7/2
f 14/5/2 8/9/2 30/7/2
f 4/10/2 13/11/2 34/12/2
f 34/12/2 13/11/2 29/13/2
f 29/13/2 13/11/2 32/14/2
f 13/11/2 9/15/2 32/14/2
f 32/14/2 9/15/2 27/16/2
f 27/16/2 9/15/2 33/17/2
f 9/15/2 12/18/2 33/17/2
f 33/17/2 12/18/2 28/19/2
f 28/19/2 12/18/2 31/20/2
f 12/18/2 2/21/2 31/20/2
f 2/22/2 25/23/2 31/20/2
f 31/20/2 25/23/2 28/19/2
f 28/19/2 25/23/2 45/24/2
f 25/23/2 16/25/2 45/24/2
f 45/24/2 16/25/2 18/26/2
f 18/26/2 16/25/2 38/27/2
f 16/25/2 24/28/2 38/27/2
f 24/28/2 22/29/2 38/27/2
f 22/29/2 18/26/2 38/27/2
f 22/29/2 36/30/2 18/26/2
f 18/26/2 36/30/2 17/31/2
f 36/30/2 21/32/2 17/31/2
f 21/32/2 37/33/2 17/31/2
f 37/33/2 19/34/2 17/31/2
f 19/34/2 44/35/2 17/31/2
f 44/35/2 27/16/2 17/31/2
f 27/16/2 43/36/2 17/31/2
f 43/36/2 18/26/2 17/31/2
f 43/36/2 28/19/2 18/26/2
f 28/19/2 45/24/2 18/26/2
f 28/19/2 43/36/2 27/16/2
f 28/19/2 27/16/2 33/17/2
f 44/35/2 29/13/2 27/16/2
f 29/13/2 32/14/2 27/16/2
f 29/13/2 44/35/2 19/34/2
f 29/13/2 19/34/2 42/37/2
f 19/34/2 15/38/2 42/37/2
f 15/38/2 26/39/2 42/37/2
f 42/37/2 26/39/2 29/13/2
f 29/13/2 26/39/2 34/12/2
f 26/39/2 4/10/2 34/12/2
f 19/34/2 35/40/2 15/38/2
f 35/40/2 20/8/2 15/38/2
f 35/40/2 23/6/2 20/8/2
f 23/6/2 35/40/2 19/34/2
f 23/6/2 19/34/2 37/33/2
f 23/6/2 37/33/2 21/32/2
f 23/6/2 21/32/2 40/4/2
f 21/32/2 10/41/2 40/4/2
f 10/41/2 14/5/2 40/4/2
f 21/32/2 41/42/2 10/41/2
f 41/42/2 11/43/2 10/41/2
f 41/42/2 22/29/2 11/43/2
f 22/29/2 39/44/2 11/43/2
f 39/44/2 6/45/2 11/43/2
f 39/44/2 24/28/2 6/45/2
f 24/28/2 39/44/2 22/29/2
f 22/29/2 41/42/2 21/32/2
f 22/29/2 21/32/2 36/30/2
f 10/41/3 48/46/3 14/5/3
f 24/28/4 49/47/4 6/45/4
f 49/47/4 16/25/4 46/48/4
f 46/48/4 5/2/4 49/47/4
f 2/22/4 46/48/4 25/23/4
f 49/47/3 10/41/3 11/43/3
f 20/8/5 48/46/5 15/49/5
f 49/47/3 48/46/3 10/41/3
f 6/45/3 49/47/3 11/43/3
f 47/50/6 1/51/6 46/52/6
f 14/5/3 48/46/3 8/9/3
f 16/25/4 49/47/4 24/28/4
f 8/9/5 48/46/5 20/8/5
f 49/47/3 7/53/3 48/46/3
f 48/46/5 3/54/5 47/50/5
f 47/50/5 15/49/5 48/46/5
f 25/23/4 46/48/4 16/25/4
f 12/18/6 46/48/6 2/22/6
f 9/15/6 46/48/6 12/18/6
f 46/52/6 9/15/6 47/50/6
f 13/11/6 47/50/6 9/15/6
f 4/10/6 47/50/6 13/11/6
f 26/39/5 47/50/5 4/10/5
f 15/49/5 47/50/5 26/39/5
f 48/46/5 7/53/5 3/54/5
f 47/50/6 3/54/6 1/51/6
f 46/48/4 1/55/4 5/2/4
f 49/47/3 5/2/3 7/53/3
f 3/1/1 7/53/1 5/2/1
